<?xml version="1.0" encoding="UTF-8"?>
<svg version="1.1" xmlns="http://www.w3.org/2000/svg" width="466" height="318">
<path d="M0 0 C2.54104155 -0.0010746 5.08208286 -0.00301592 7.62312317 -0.00575256 C13.77601155 -0.01007602 19.92883205 -0.0051961 26.08171303 0.00409774 C33.26378098 0.01455084 40.44583761 0.01440972 47.62791174 0.01392516 C60.45149679 0.01342596 73.2750568 0.02254755 86.09863281 0.03710938 C98.51107235 0.05119681 110.92348986 0.05827988 123.3359375 0.05761719 C124.10069985 0.05757723 124.86546221 0.05753728 125.65339918 0.05749611 C126.79865947 0.05743558 126.79865947 0.05743558 127.96705633 0.05737382 C142.14436831 0.05668203 156.32167102 0.06258477 170.49897997 0.07152704 C175.49245956 0.07452924 180.48593742 0.07560491 185.4794178 0.07605934 C192.21249519 0.07681712 198.94554658 0.08320852 205.67861748 0.09322548 C208.14157343 0.0961317 210.60453202 0.09737968 213.06748962 0.09679794 C246.31580911 0.09191897 246.31580911 0.09191897 258.27709961 3.49291992 C259.0855835 3.71616943 259.89406738 3.93941895 260.72705078 4.16943359 C277.25184333 8.86463331 291.91403576 16.71625696 304.65209961 28.24291992 C306.11776367 29.5500293 306.11776367 29.5500293 307.61303711 30.88354492 C325.65029838 47.56750338 337.68745444 71.70620383 339.65209961 96.24291992 C339.8070957 101.37253778 339.80966085 106.50091602 339.81323242 111.63232422 C339.81786747 113.18874731 339.82289304 114.74516928 339.82827759 116.30158997 C339.8413372 120.5125982 339.84783387 124.72359055 339.85228825 128.93461585 C339.85522932 131.57136542 339.85933603 134.20811075 339.86379242 136.84485817 C339.87745021 145.11178811 339.88712534 153.37870822 339.89099431 161.64564866 C339.89547138 171.15689624 339.91301023 180.66799986 339.94199491 190.17920369 C339.9636778 197.55275851 339.9737021 204.92627301 339.97503543 212.29985934 C339.9760787 216.6938306 339.9818841 221.08766621 339.99985504 225.48160362 C340.0164506 229.61935258 340.01843616 233.75686557 340.00971603 237.89463615 C340.00895177 239.40338019 340.01320661 240.91213754 340.02317429 242.42084885 C340.10757245 256.0044977 338.15570045 267.77628092 331.65209961 279.80541992 C331.1693457 280.70800537 330.6865918 281.61059082 330.18920898 282.54052734 C321.19445452 298.77570917 307.40560771 310.56405802 289.59741211 316.21166992 C270.95638875 321.13399394 252.90718361 317.93004295 236.43969727 308.36206055 C222.48853128 299.62781514 213.11413186 283.84676511 209.16381836 268.11401367 C208.39918453 263.82389256 208.1866509 259.53978453 208.05834961 255.18823242 C207.59130687 251.80217257 206.72541562 249.9476549 204.65209961 247.24291992 C201.24375844 245.00364005 198.32955327 244.99202312 194.31054688 244.98754883 C193.02563858 244.9805899 191.74073029 244.97363098 190.41688538 244.96646118 C189.73292253 244.96714222 189.04895969 244.96782326 188.34427071 244.96852493 C186.19587205 244.96949262 184.04797037 244.95652036 181.89964294 244.93954468 C175.793323 244.89334273 169.68705521 244.86866651 163.58056641 244.86206055 C159.84099921 244.85704025 156.10195284 244.8327671 152.36256218 244.79673386 C150.94048123 244.78694972 149.51832853 244.7845964 148.09622383 244.78990555 C146.10514739 244.796991 144.11403038 244.77758137 142.12304688 244.75708008 C140.99149673 244.75423004 139.85994659 244.75138 138.69410706 244.7484436 C134.98731193 244.13244487 133.3233415 242.83345661 130.65209961 240.24291992 C128.7469144 236.43254951 129.40666652 231.16356057 129.32397461 226.94213867 C128.48791072 222.33892642 127.30439801 221.10518 123.65209961 218.24291992 C120.85570145 217.76626114 118.6845404 217.58420587 115.90209961 217.64916992 C115.16636719 217.64912964 114.43063477 217.64908936 113.67260742 217.64904785 C112.12271546 217.65439061 110.57282306 217.67192052 109.02319336 217.70092773 C106.65906446 217.74279657 104.297787 217.74199222 101.93334961 217.73510742 C100.42291327 217.74560101 98.91249153 217.75854004 97.40209961 217.77416992 C96.69988281 217.77437134 95.99766602 217.77457275 95.27416992 217.77478027 C90.92212603 217.87904139 88.11971105 218.58028971 84.65209961 221.24291992 C82.77131625 225.00448663 83.29481562 229.61298593 83.12866211 233.76245117 C82.61408868 237.52052437 82.09922572 239.35772803 79.65209961 242.24291992 C73.05740038 246.11565573 66.53174395 245.59495512 59.05444336 245.46557617 C57.05649493 245.45184295 55.05854636 245.43812052 53.06059361 245.42503262 C50.27608594 245.40326238 47.49181793 245.3679931 44.7074585 245.33233643 C39.83058723 245.27035481 34.9536982 245.21777574 30.07655334 245.18321228 C27.48436319 245.16348344 24.89222482 245.13388739 22.30027771 245.09327698 C21.12207962 245.08344284 19.94388153 245.0736087 18.72998047 245.06347656 C17.69852402 245.04998672 16.66706757 245.03649689 15.60435486 245.02259827 C12.30149882 245.26908465 9.69444725 245.93759524 6.65209961 247.24291992 C4.69487682 251.21958934 4.42113635 254.92337897 4.27709961 259.30541992 C3.07666408 277.18987474 -5.79577497 292.29270275 -18.59790039 304.49291992 C-30.72269758 314.73806371 -46.8660245 319.12169366 -62.55493164 318.62573242 C-80.35289048 316.82943998 -93.8952733 309.84055577 -106.34790039 297.24291992 C-107.01692383 296.58420898 -107.68594727 295.92549805 -108.37524414 295.24682617 C-123.23808247 279.57512589 -126.49462677 260.57429195 -126.5090332 239.80932617 C-126.51366833 238.24791854 -126.51869391 236.68651203 -126.52407837 235.12510681 C-126.53714041 230.8994348 -126.54363556 226.67377863 -126.54808903 222.4480896 C-126.55103075 219.80059602 -126.55513765 217.15310667 -126.5595932 214.50561523 C-126.57325394 206.20076965 -126.58292665 197.89593384 -126.58679509 189.5910778 C-126.59126771 180.04477007 -126.60878453 170.49860609 -126.63779569 160.95234203 C-126.65950843 153.5473181 -126.66950452 146.14233432 -126.67083621 138.73727894 C-126.67187771 134.32700365 -126.67764399 129.91686373 -126.69565582 125.50662231 C-126.71230262 121.3499866 -126.71421279 117.19358563 -126.70551682 113.03692818 C-126.70475514 111.5246066 -126.70897192 110.01227152 -126.71897507 108.49998283 C-126.90141985 79.15974645 -115.6258106 52.90943883 -95.63305664 31.44604492 C-82.66260665 18.94120083 -67.32303146 10.01642929 -50.09790039 4.74291992 C-49.3436377 4.5117749 -48.589375 4.28062988 -47.81225586 4.04248047 C-32.11403456 -0.36271795 -16.15554537 -0.03982246 0 0 Z M-32.13500977 62.99316406 C-33.83253357 66.14185204 -33.73386442 68.6739852 -33.75415039 72.23901367 C-33.76498657 72.90957291 -33.77582275 73.58013214 -33.7869873 74.27101135 C-33.82115972 76.40757944 -33.83682013 78.5436149 -33.84790039 80.68041992 C-33.86251656 83.49212644 -33.89628377 86.30265352 -33.94165039 89.11401367 C-33.94874023 90.36110107 -33.95583008 91.60818848 -33.96313477 92.89306641 C-34.37579814 96.48580381 -35.18316663 98.37808377 -37.34790039 101.24291992 C-40.16140835 102.6496739 -42.56757284 102.40677348 -45.71118164 102.45385742 C-46.99057617 102.4822168 -48.2699707 102.51057617 -49.58813477 102.53979492 C-51.62222816 102.58097189 -53.65608818 102.61786391 -55.69042969 102.64428711 C-57.65590588 102.67202038 -59.62108079 102.71898181 -61.58618164 102.76635742 C-63.35022339 102.79608643 -63.35022339 102.79608643 -65.14990234 102.82641602 C-68.74589567 103.29475441 -70.5409499 103.95608886 -73.34790039 106.24291992 C-77.23659551 112.26066895 -76.90631223 118.16915151 -76.90380859 125.12841797 C-76.9103767 127.17304507 -76.96493662 129.21282106 -77.02172852 131.2565918 C-77.19947873 139.52462196 -77.19947873 139.52462196 -73.50024414 146.62182617 C-69.7431196 150.27121954 -66.14494628 150.37511752 -61.07055664 150.45385742 C-59.83499023 150.4822168 -58.59942383 150.51057617 -57.32641602 150.53979492 C-54.71978796 150.59179748 -52.11299453 150.63609269 -49.50610352 150.67260742 C-48.26924805 150.70354492 -47.03239258 150.73448242 -45.75805664 150.76635742 C-44.62505127 150.78617676 -43.4920459 150.80599609 -42.32470703 150.82641602 C-39.05482279 151.28392627 -37.66748446 151.92912885 -35.34790039 154.24291992 C-34.21391517 157.6448756 -34.18904628 160.33649863 -34.13696289 163.92260742 C-34.1088927 165.25725507 -34.08022822 166.59189033 -34.05102539 167.92651367 C-34.00981137 170.02205026 -33.97290749 172.11735588 -33.9465332 174.21313477 C-33.91881565 176.24177276 -33.87295044 178.26937341 -33.82446289 180.29760742 C-33.79473389 182.11494385 -33.79473389 182.11494385 -33.7644043 183.96899414 C-33.16973751 188.64336789 -31.77629676 191.11200316 -28.09008789 194.03051758 C-24.71380017 195.52327442 -22.16077541 195.6309481 -18.47290039 195.64135742 C-17.15805664 195.64522461 -15.84321289 195.6490918 -14.48852539 195.65307617 C-13.46855469 195.6436499 -13.46855469 195.6436499 -12.42797852 195.6340332 C-10.35374147 195.61796517 -8.28145243 195.63390724 -6.20727539 195.65307617 C-4.89243164 195.64920898 -3.57758789 195.6453418 -2.22290039 195.64135742 C-1.02407227 195.63797363 0.17475586 195.63458984 1.40991211 195.63110352 C5.84286349 195.10035105 8.27728908 193.57557559 11.44360352 190.50634766 C13.16351945 187.28506673 13.00396406 184.66511017 12.98803711 181.02807617 C13.00054837 179.60554556 13.01358544 178.18301949 13.02709961 176.76049805 C13.03102881 174.53092328 13.02707585 172.30179766 13.01245117 170.07226562 C13.00385684 167.91102872 13.02559567 165.75164956 13.05053711 163.59057617 C13.04546143 161.65710327 13.04546143 161.65710327 13.0402832 159.68457031 C13.82046152 155.2958338 15.06833001 153.84418116 18.65209961 151.24291992 C21.67895508 150.64697266 21.67895508 150.64697266 25.01928711 150.67651367 C26.84266602 150.66007812 26.84266602 150.66007812 28.70288086 150.64331055 C29.96487305 150.65555664 31.22686523 150.66780273 32.52709961 150.68041992 C43.86232092 151.08594048 43.86232092 151.08594048 53.65209961 146.24291992 C57.08787717 141.18532094 56.06269855 134.47931798 56.07763672 128.59887695 C56.0895271 126.38144202 56.13872534 124.16679872 56.18920898 121.94995117 C56.19867537 120.52939174 56.20590938 119.10881533 56.21069336 117.68823242 C56.22414795 116.4044873 56.23760254 115.12074219 56.25146484 113.7980957 C55.4616223 109.11309076 54.02042749 107.54087408 50.65209961 104.24291992 C47.29493831 103.12386615 44.72777408 103.11693928 41.19116211 103.10229492 C39.91499023 103.08295898 38.63881836 103.06362305 37.32397461 103.04370117 C35.30056686 103.01475329 33.2782669 102.9929202 31.25463867 102.99243164 C29.29581172 102.98908567 27.33713272 102.95230595 25.37866211 102.91479492 C24.20899902 102.90544922 23.03933594 102.89610352 21.83422852 102.88647461 C17.62544138 102.03528826 16.16936941 100.69255487 13.65209961 97.24291992 C13.0402832 93.90893555 13.0402832 93.90893555 13.05053711 90.14916992 C13.04253082 89.48002563 13.03452454 88.81088135 13.02627563 88.12145996 C13.00330108 85.99465535 13.01262793 83.86977398 13.02709961 81.74291992 C13.03095807 79.61642699 13.02742449 77.49077888 13.00650024 75.36437988 C12.98893519 73.43530127 12.99635814 71.50604295 13.00512695 69.5769043 C12.52704564 65.06191228 11.03667178 62.65704148 7.90185547 59.45532227 C4.74888709 57.75617512 2.22565608 57.85417691 -1.34399414 57.84448242 C-2.01455338 57.84161224 -2.68511261 57.83874207 -3.37599182 57.83578491 C-4.79054613 57.83374871 -6.20512888 57.83924762 -7.61962891 57.85180664 C-9.77514229 57.8678436 -11.9287738 57.85195827 -14.08422852 57.83276367 C-15.46248783 57.83474668 -16.84074599 57.83859155 -18.21899414 57.84448242 C-20.08962524 57.84955811 -20.08962524 57.84955811 -21.99804688 57.85473633 C-26.50605802 58.37712812 -28.93249239 59.85670954 -32.13500977 62.99316406 Z M83.86669922 62.96582031 C82.16663597 66.15305446 82.20340305 69.1498397 82.21850586 72.67651367 C82.21326401 73.391465 82.20802216 74.10641632 82.20262146 74.84303284 C82.19621245 76.35172225 82.1975238 77.86046171 82.20605469 79.36914062 C82.21456026 81.6697753 82.18580091 83.96792131 82.15405273 86.26831055 C82.15244033 87.73771085 82.153019 89.20711552 82.15600586 90.67651367 C82.13915489 91.70173378 82.13915489 91.70173378 82.1219635 92.74766541 C82.19084932 97.50160051 83.25179208 99.9379052 86.65209961 103.24291992 C91.9039716 105.37569233 96.83023025 105.52835946 102.40209961 105.43041992 C103.19124756 105.42034912 103.98039551 105.41027832 104.79345703 105.39990234 C107.08024146 105.36176197 109.3658342 105.30410825 111.65209961 105.24291992 C112.78776367 105.22487305 113.92342773 105.20682617 115.09350586 105.18823242 C119.79916951 104.97055546 121.97907795 104.76787681 125.77709961 101.80541992 C129.73926837 96.39045595 128.91150413 90.64472396 128.94726562 84.17700195 C128.96442653 82.0147281 129.00830503 79.85400485 129.05249023 77.69213867 C129.06262237 76.3080353 129.07113684 74.92391895 129.07788086 73.53979492 C129.09246338 72.28521484 129.1070459 71.03063477 129.12207031 69.73803711 C128.56079925 65.56392984 127.33323673 63.46134432 124.65209961 60.24291992 C119.97123229 56.76715225 113.35958816 57.90959173 107.80761719 57.92724609 C105.72464598 57.93040469 103.64309841 57.90693473 101.56030273 57.8815918 C99.58126953 57.880625 99.58126953 57.880625 97.56225586 57.87963867 C96.35706299 57.87665771 95.15187012 57.87367676 93.91015625 57.87060547 C89.4639597 58.37869462 87.04542062 59.89837372 83.86669922 62.96582031 Z M197.37060547 64.00830078 C195.42919166 67.66248341 195.14939 69.88492267 195.15600586 73.99682617 C195.15536133 75.26333008 195.1547168 76.52983398 195.15405273 77.8347168 C195.1740332 79.14504883 195.19401367 80.45538086 195.21459961 81.80541992 C195.20750977 83.11961914 195.20041992 84.43381836 195.19311523 85.7878418 C195.10555026 94.02441659 195.10555026 94.02441659 198.65209961 101.24291992 C203.45788237 105.98386919 208.2348944 105.73748148 214.79077148 105.7409668 C216.04438477 105.72098633 217.29799805 105.70100586 218.58959961 105.68041992 C219.8393457 105.68750977 221.0890918 105.69459961 222.37670898 105.7019043 C231.46880742 105.69344389 231.46880742 105.69344389 239.65209961 102.24291992 C243.81258071 96.73052894 243.13998962 91.02182487 243.09814453 84.37792969 C243.08963636 82.31433242 243.11841817 80.25350967 243.15014648 78.19018555 C243.14950195 76.87856445 243.14885742 75.56694336 243.14819336 74.21557617 C243.15004639 73.02198486 243.15189941 71.82839355 243.15380859 70.59863281 C242.39947697 65.55323714 240.28744451 62.53922156 236.31811523 59.39282227 C233.04899993 57.98279177 230.55302457 57.85488642 226.99584961 57.84448242 C225.72612305 57.84061523 224.45639648 57.83674805 223.14819336 57.83276367 C221.82948242 57.84436523 220.51077148 57.8559668 219.15209961 57.86791992 C217.83338867 57.85631836 216.51467773 57.8447168 215.15600586 57.83276367 C213.25141602 57.83856445 213.25141602 57.83856445 211.30834961 57.84448242 C209.57294922 57.84955811 209.57294922 57.84955811 207.80249023 57.85473633 C202.81496301 58.4692875 200.54220748 60.16402727 197.37060547 64.00830078 Z M153.90209961 108.24291992 C150.46546456 113.741536 151.42820048 120.30099771 151.40209961 126.55541992 C151.38147461 127.77938477 151.36084961 129.00334961 151.33959961 130.2644043 C151.33444336 131.44969727 151.32928711 132.63499023 151.32397461 133.85620117 C151.31462891 134.93683838 151.3052832 136.01747559 151.2956543 137.13085938 C151.84595959 141.93547689 153.60231979 145.1931401 156.99975586 148.59057617 C162.0604963 151.60266143 168.4168061 150.77441062 174.08959961 150.68041992 C175.29165039 150.68750977 176.49370117 150.69459961 177.73217773 150.7019043 C187.89978268 150.73487485 187.89978268 150.73487485 196.30249023 145.58398438 C199.0195068 140.87098295 198.12931712 134.92409639 198.09814453 129.59887695 C198.08965208 127.38161848 198.1183765 125.16695413 198.15014648 122.94995117 C198.15175929 121.52937902 198.15117944 120.10880235 198.14819336 118.68823242 C198.15004639 117.4044873 198.15189941 116.12074219 198.15380859 114.7980957 C197.5619219 110.60390885 196.35146779 108.47836023 193.65209961 105.24291992 C189.04009907 101.84373417 182.69968072 102.9092456 177.23486328 102.92724609 C175.22430121 102.93040468 173.21521421 102.90693376 171.20483398 102.8815918 C169.29347656 102.880625 169.29347656 102.880625 167.34350586 102.87963867 C166.18020752 102.87665771 165.01690918 102.87367676 163.81835938 102.87060547 C159.43033212 103.38658523 156.79164807 104.94057882 153.90209961 108.24291992 Z M243.65209961 106.24291992 C241.2618164 109.82834474 241.34585182 112.43630558 241.35131836 116.57885742 C241.34703323 117.29522369 241.34274811 118.01158997 241.33833313 118.74966431 C241.33259442 120.26433252 241.3320862 121.7790283 241.33642578 123.29370117 C241.33957893 125.602778 241.31614691 127.91056462 241.29077148 130.21948242 C241.28849763 131.69343915 241.28779539 133.1673993 241.28881836 134.64135742 C241.27960861 135.32797455 241.27039886 136.01459167 241.26091003 136.72201538 C241.30258825 141.0754852 241.83629927 143.87969563 244.65209961 147.24291992 C248.87633794 149.95797198 252.17631182 150.62609873 257.15209961 150.64135742 C258.36897461 150.64522461 259.58584961 150.6490918 260.83959961 150.65307617 C262.72678711 150.63567383 262.72678711 150.63567383 264.65209961 150.61791992 C265.91022461 150.62952148 267.16834961 150.64112305 268.46459961 150.65307617 C269.68147461 150.64920898 270.89834961 150.6453418 272.15209961 150.64135742 C273.25553711 150.63797363 274.35897461 150.63458984 275.49584961 150.63110352 C279.98583677 150.07888511 283.40933459 148.61424684 286.46459961 145.24291992 C289.84235605 139.55406696 288.91635845 132.83363043 288.96459961 126.43041992 C288.99360352 125.15875977 289.02260742 123.88709961 289.05249023 122.5769043 C289.32822478 115.26822519 289.32822478 115.26822519 286.94506836 108.54370117 C282.39469865 103.97782765 278.99018627 102.86202379 272.55834961 102.84448242 C271.88920532 102.84161224 271.22006104 102.83874207 270.53063965 102.83578491 C269.12206166 102.83375201 267.71345493 102.83922766 266.30493164 102.85180664 C264.15828876 102.8678736 262.01352822 102.851934 259.86694336 102.83276367 C258.49324132 102.83474624 257.11954044 102.83859021 255.74584961 102.84448242 C254.50512695 102.84786621 253.2644043 102.85125 251.98608398 102.85473633 C248.37669447 103.27498599 246.52286435 104.05515046 243.65209961 106.24291992 Z M84.51831055 144.43969727 C82.35055426 147.69586913 82.08281377 149.54858159 81.93725586 153.42651367 C81.89149414 154.60149414 81.84573242 155.77647461 81.79858398 156.98706055 C81.77086914 158.20586914 81.7431543 159.42467773 81.71459961 160.68041992 C81.65981445 161.89536133 81.6050293 163.11030273 81.54858398 164.36206055 C81.35257163 170.63789458 81.3755904 174.71588917 84.65209961 180.24291992 C90.60814459 185.64058569 97.89355266 184.46249884 105.46459961 184.49291992 C107.37208984 184.52385742 107.37208984 184.52385742 109.31811523 184.55541992 C110.54852539 184.56057617 111.77893555 184.56573242 113.04663086 184.57104492 C114.1691626 184.58039063 115.29169434 184.58973633 116.44824219 184.59936523 C120.9959504 184.09340974 124.19786618 182.64521644 127.49780273 179.46313477 C129.82014706 174.99625673 129.16996486 169.80969959 129.15307617 164.88061523 C129.15210615 162.88139143 129.19492662 160.88230409 129.23803711 158.88354492 C129.4905498 151.13220941 129.4905498 151.13220941 126.24584961 144.39135742 C120.82619528 139.90218591 114.77081477 140.81103642 107.96459961 140.55541992 C106.06291016 140.46550781 106.06291016 140.46550781 104.12280273 140.3737793 C93.42833771 139.53149552 93.42833771 139.53149552 84.51831055 144.43969727 Z M198.65209961 152.24291992 C194.76739689 158.82492567 195.17259252 164.78857066 195.21459961 172.24291992 C195.19461914 173.50104492 195.17463867 174.75916992 195.15405273 176.05541992 C195.056741 185.00625406 195.056741 185.00625406 199.65209961 192.24291992 C203.12085021 195.51813932 205.73074565 195.62815265 210.42944336 195.64135742 C211.74750977 195.64522461 213.06557617 195.6490918 214.42358398 195.65307617 C215.10767334 195.64679199 215.7917627 195.64050781 216.49658203 195.6340332 C218.57968958 195.61799622 220.66084963 195.63388212 222.74389648 195.65307617 C224.06325195 195.64920898 225.38260742 195.6453418 226.74194336 195.64135742 C227.94713623 195.63797363 229.1523291 195.63458984 230.39404297 195.63110352 C234.83380231 195.10212507 237.47642759 193.58654509 240.40209961 190.24291992 C243.90618962 184.6363759 242.91655422 177.80764464 242.96459961 171.43041992 C242.99360352 170.15875977 243.02260742 168.88709961 243.05249023 167.5769043 C243.32312192 160.28436986 243.32312192 160.28436986 241.00756836 153.54370117 C234.44386834 147.13239219 227.27566371 147.75682402 218.65209961 147.80541992 C217.39397461 147.78543945 216.13584961 147.76545898 214.83959961 147.74487305 C205.84718584 147.58978792 205.84718584 147.58978792 198.65209961 152.24291992 Z " fill="#010001" transform="translate(126.347900390625,-0.242919921875)"/>
<path d="M0 0 C-0.33 0.66 -0.66 1.32 -1 2 C-1.66 1.67 -2.32 1.34 -3 1 C-5.13103876 0.90241485 -7.26516656 0.86922835 -9.3984375 0.8671875 C-10.68234375 0.86589844 -11.96625 0.86460938 -13.2890625 0.86328125 C-14.29501465 0.86642334 -14.29501465 0.86642334 -15.32128906 0.86962891 C-17.36010241 0.87496104 -19.39869368 0.86968949 -21.4375 0.86328125 C-22.72398437 0.86457031 -24.01046875 0.86585937 -25.3359375 0.8671875 C-27.10783447 0.86887939 -27.10783447 0.86887939 -28.91552734 0.87060547 C-31.47754095 0.97808269 -33.5668313 1.24446473 -36 2 C-36 1.34 -36 0.68 -36 0 C-30.92088487 -2.97979767 -25.43297673 -2.58583454 -19.6875 -2.8125 C-18.57181641 -2.87630859 -17.45613281 -2.94011719 -16.30664062 -3.00585938 C-10.00749131 -3.2709688 -5.54610143 -3.09717353 0 0 Z " fill="#0B0D0C" transform="translate(363,58)"/>
<path d="M0 0 C0.66 1.32 1.32 2.64 2 4 C0.35 5.65 -1.3 7.3 -3 9 C-3.99 8.67 -4.98 8.34 -6 8 C-5.195625 7.236875 -4.39125 6.47375 -3.5625 5.6875 C-0.83200976 3.20569102 -0.83200976 3.20569102 0 0 Z " fill="#18090B" transform="translate(414,140)"/>
</svg>
